<svg viewBox="0 0 16 16" fill="none" xmlns="http://www.w3.org/2000/svg" id="React--Streamline-Unicons" height="16" width="16">
  <desc>
    React Streamline Icon: https://streamlinehq.com
  </desc>
  <path d="M7.296733333333333 6.775266666666667c-0.2398 0.13846666666666665 -0.4332666666666667 0.345 -0.5556666666666666 0.5933333333333333s-0.1686 0.5274666666666666 -0.13246666666666665 0.8020666666666667c0.03613333333333333 0.2745333333333333 0.15286666666666665 0.5322 0.33546666666666664 0.7404666666666666 0.18259999999999998 0.2081333333333333 0.4229333333333333 0.3576 0.6904 0.4292 0.26739999999999997 0.07166666666666666 0.5502 0.06246666666666667 0.8124666666666666 -0.0266 0.26213333333333333 -0.089 0.4921333333333333 -0.25379999999999997 0.6607333333333333 -0.47353333333333336 0.1686 -0.21966666666666668 0.2682 -0.48446666666666666 0.28633333333333333 -0.7607999999999999 0.018 -0.2764 -0.0462 -0.5518666666666666 -0.18466666666666667 -0.7916666666666666 -0.18566666666666667 -0.32153333333333334 -0.49153333333333327 -0.5562 -0.8502000000000001 -0.6523333333333333 -0.3586666666666667 -0.09599999999999999 -0.7407999999999999 -0.04573333333333333 -1.0623999999999998 0.13986666666666664Zm6.275666666666667 1.5191333333333334c-0.092 -0.105 -0.18893333333333331 -0.21033333333333332 -0.29106666666666664 -0.31599999999999995 0.07139999999999999 -0.07486666666666666 0.1403333333333333 -0.14973333333333333 0.207 -0.22459999999999997 1.259 -1.4145333333333332 1.7903333333333333 -2.833133333333333 1.298 -3.686 -0.47213333333333335 -0.8176666666666665 -1.8763999999999998 -1.0613333333333332 -3.6345333333333336 -0.7195333333333332 -0.17319999999999997 0.03386666666666666 -0.3454 0.07213333333333333 -0.5166666666666666 0.11466666666666665 -0.03273333333333333 -0.113 -0.06766666666666667 -0.2254 -0.10466666666666666 -0.33713333333333334C9.934066666666666 1.3284666666666665 8.970666666666666 0.1594 7.9858666666666664 0.15999999999999998c-0.9442666666666667 0.00046666666666666666 -1.8568666666666664 1.0953333333333333 -2.439 2.789066666666667 -0.057333333333333326 0.16706666666666664 -0.11026666666666665 0.33559999999999995 -0.15899999999999997 0.5054666666666666 -0.11446666666666666 -0.028133333333333333 -0.22946666666666665 -0.054066666666666666 -0.3449333333333333 -0.07786666666666667C3.1879999999999997 2.9957999999999996 1.6939333333333333 3.2466666666666666 1.2025333333333332 4.1c-0.4711333333333333 0.8182666666666667 0.021599999999999998 2.1557999999999997 1.1984 3.5060666666666664 0.11666666666666665 0.1336 0.23666666666666664 0.2642 0.36 0.39186666666666664 -0.14533333333333331 0.14973333333333333 -0.283 0.2994 -0.41133333333333333 0.4482 -1.1481999999999999 1.3312 -1.6128 2.646933333333333 -1.1423999999999999 3.4616666666666664 0.48586666666666667 0.8415999999999999 1.9588666666666665 1.1167333333333334 3.751733333333333 0.7639333333333332 0.14533333333333331 -0.028866666666666665 0.28979999999999995 -0.061266666666666664 0.43346666666666667 -0.09720000000000001 0.05266666666666667 0.18366666666666667 0.1104 0.3658666666666666 0.17326666666666668 0.5464 0.5795999999999999 1.659733333333333 1.4870666666666665 2.7194000000000003 2.4280666666666666 2.7190666666666665 0.9716666666666667 -0.0006 1.9457999999999998 -1.1390666666666664 2.5359333333333334 -2.8684666666666665 0.04666666666666667 -0.13666666666666666 0.09073333333333333 -0.27859999999999996 0.1326 -0.4247333333333333 0.1856 0.0462 0.37239999999999995 0.08713333333333334 0.5604 0.12293333333333334 1.7274666666666667 0.3268 3.0987333333333336 0.0698 3.5683333333333334 -0.7455333333333334 0.4849333333333333 -0.8422666666666667 -0.015 -2.2548666666666666 -1.2186 -3.6298ZM1.783 4.4342c0.3025333333333333 -0.5252666666666667 1.5235333333333332 -0.7302 3.1251333333333333 -0.4014 0.10233333333333333 0.021066666666666668 0.20646666666666663 0.0446 0.31226666666666664 0.0706 -0.15633333333333332 0.6916666666666667 -0.26666666666666666 1.3929333333333331 -0.33026666666666665 2.0992666666666664 -0.5778666666666666 0.4065333333333333 -1.1288 0.8500666666666665 -1.6494 1.3277333333333332 -0.11473333333333333 -0.1186 -0.22633333333333333 -0.24013333333333334 -0.3349333333333333 -0.3644666666666666C1.897533333333333 6.009 1.4990666666666668 4.927333333333333 1.783 4.4342Zm3.0471333333333335 4.4908c-0.40026666666666666 -0.30306666666666665 -0.7722666666666667 -0.6135333333333333 -1.1098666666666666 -0.9259333333333333 0.3374 -0.31026666666666664 0.7096 -0.6197999999999999 1.1090666666666666 -0.9219999999999999 -0.014333333333333332 0.3078666666666666 -0.021466666666666665 0.6160666666666667 -0.021333333333333333 0.9244666666666667 0.00019999999999999998 0.3079333333333333 0.0076 0.6157333333333332 0.02213333333333333 0.9234666666666667Zm-0.00046666666666666666 3.0894c-0.6795333333333333 0.15113333333333334 -1.3809999999999998 0.17586666666666664 -2.0695333333333332 0.07306666666666667 -0.18873333333333334 -0.014733333333333334 -0.37239999999999995 -0.06793333333333333 -0.5398 -0.15646666666666664 -0.16733333333333333 -0.08846666666666667 -0.3147333333333333 -0.21033333333333332 -0.43313333333333337 -0.35806666666666664 -0.2854 -0.49446666666666667 0.08766666666666667 -1.550733333333333 1.0696666666666665 -2.689333333333333 0.12339999999999998 -0.14266666666666666 0.25093333333333334 -0.28159999999999996 0.3824666666666666 -0.4168666666666666 0.5206666666666666 0.4802 1.0725333333333333 0.9255333333333333 1.6520000000000001 1.3328666666666666 0.06446666666666666 0.7153333333333333 0.17606666666666665 1.4255333333333333 0.3341333333333333 2.1262 -0.13119999999999998 0.032799999999999996 -0.26306666666666667 0.06233333333333333 -0.3958 0.08859999999999998Zm5.567266666666666 -6.3027999999999995c-0.2629333333333333 -0.16566666666666666 -0.5291999999999999 -0.32599999999999996 -0.7986 -0.48106666666666664 -0.2652 -0.15266666666666667 -0.5334666666666666 -0.2995333333333333 -0.8050666666666666 -0.44066666666666665 0.4649333333333333 -0.19546666666666668 0.9219999999999999 -0.3624666666666666 1.3631333333333333 -0.49846666666666667 0.10406666666666665 0.46906666666666663 0.18426666666666663 0.9430666666666667 0.24053333333333332 1.4202ZM6.1803333333333335 3.1668000000000003c0.49879999999999997 -1.4512666666666665 1.2368 -2.336733333333333 1.8059333333333332 -2.3369999999999997 0.6060666666666666 -0.0002666666666666667 1.3935333333333333 0.9551333333333334 1.9084666666666665 2.5069333333333335 0.033466666666666665 0.10119999999999998 0.06506666666666666 0.20293333333333333 0.09486666666666667 0.30519999999999997 -0.6763999999999999 0.2098 -1.3383333333333332 0.4642 -1.9811999999999999 0.7613999999999999 -0.6403333333333333 -0.30066666666666664 -1.3000666666666665 -0.5578666666666666 -1.9749333333333334 -0.7698 0.04513333333333333 -0.1568 0.09406666666666666 -0.31233333333333335 0.14686666666666665 -0.4667333333333333Zm-0.3139333333333333 1.1162666666666667c0.4602 0.14486666666666664 0.9128 0.3128666666666666 1.3560666666666665 0.5032666666666666 -0.5492666666666666 0.28346666666666664 -1.0842666666666667 0.5922 -1.6051333333333333 0.9262666666666666 0.06293333333333333 -0.5002 0.14666666666666667 -0.9794666666666667 0.24906666666666666 -1.429533333333333Zm-0.24786666666666668 6.005933333333333c0.2597333333333333 0.16626666666666667 0.5232666666666667 0.32639999999999997 0.7906 0.48033333333333333 0.2726666666666666 0.15706666666666666 0.5489999999999999 0.3074 0.8289333333333333 0.4512666666666666 -0.4466 0.19706666666666664 -0.9031333333333333 0.371 -1.3676 0.5212666666666667 -0.1036 -0.4563333333333333 -0.18826666666666664 -0.944 -0.25193333333333334 -1.4528666666666665Zm4.2772 2.4660666666666664c-0.2086 0.6641333333333332 -0.5375333333333333 1.2841999999999998 -0.9706666666666666 1.8291999999999997 -0.107 0.1562 -0.245 0.2887333333333333 -0.4052 0.3894666666666667 -0.16026666666666667 0.10066666666666665 -0.3394 0.16746666666666665 -0.5265333333333333 0.19626666666666664 -0.5709333333333333 0.0003333333333333333 -1.2995999999999999 -0.8506666666666667 -1.7952666666666666 -2.2700666666666667 -0.058399999999999994 -0.16779999999999998 -0.11213333333333332 -0.33713333333333334 -0.16113333333333332 -0.5079333333333333 0.6780666666666666 -0.2188 1.3405333333333334 -0.4832666666666666 1.9828666666666666 -0.7916 0.6482 0.29906666666666665 1.3153333333333332 0.5553333333333332 1.9970666666666665 0.7671333333333333 -0.0372 0.13006666666666666 -0.0776 0.25926666666666665 -0.12113333333333333 0.38753333333333334Zm0.284 -1.0381999999999998c-0.44626666666666664 -0.13793333333333332 -0.9099333333333333 -0.30766666666666664 -1.3814666666666666 -0.5060666666666667 0.2658 -0.13993333333333333 0.5336666666666666 -0.2877333333333333 0.8033333333333333 -0.44333333333333336 0.27673333333333333 -0.1598 0.5465333333333333 -0.3236 0.8091333333333333 -0.4914666666666666 -0.05226666666666666 0.4839333333333333 -0.1294 0.9648666666666667 -0.23099999999999998 1.4408666666666667Zm0.34986666666666666 -3.7182666666666666c0.0006 0.4761333333333333 -0.014266666666666665 0.9518666666666666 -0.0446 1.4272 -0.38626666666666665 0.2614666666666666 -0.794 0.5166666666666666 -1.2183333333333333 0.7616666666666667 -0.42246666666666666 0.24393333333333334 -0.8411333333333333 0.46813333333333335 -1.2517999999999998 0.6709999999999999 -0.4321333333333333 -0.2071333333333333 -0.8559333333333333 -0.4303333333333333 -1.2714666666666665 -0.6695333333333333 -0.41313333333333335 -0.23786666666666667 -0.8168 -0.49106666666666665 -1.2109999999999999 -0.7596666666666666 -0.036066666666666664 -0.4752666666666666 -0.0542 -0.9513333333333334 -0.05446666666666666 -1.4282666666666666 -0.0003333333333333333 -0.47659999999999997 0.01753333333333333 -0.9526 0.0534 -1.4281333333333333 0.38613333333333333 -0.2637333333333333 0.7909333333333333 -0.5187999999999999 1.2094666666666667 -0.7604 0.42046666666666666 -0.24280000000000002 0.8443999999999999 -0.4660666666666667 1.2659333333333334 -0.6683999999999999 0.42679999999999996 0.20746666666666663 0.8459999999999999 0.4298 1.2574 0.6669333333333333 0.41293333333333326 0.23726666666666665 0.8176666666666665 0.4878 1.2144 0.7515999999999999 0.03406666666666666 0.4779333333333333 0.05106666666666666 0.9566 0.05106666666666666 1.436Zm0.7500666666666667 -3.992733333333333c1.5063999999999997 -0.293 2.6420666666666666 -0.09593333333333333 2.9265999999999996 0.3968666666666667 0.30306666666666665 0.5249999999999999 -0.13126666666666664 1.6844000000000001 -1.2182 2.905733333333333 -0.060066666666666664 0.06746666666666666 -0.12240000000000001 0.13506666666666667 -0.187 0.20306666666666665 -0.5295333333333333 -0.4787333333333333 -1.0911333333333333 -0.9208 -1.6807999999999998 -1.3232666666666666 -0.05946666666666667 -0.6986 -0.16573333333333332 -1.3923999999999999 -0.31786666666666663 -2.0767333333333333 0.16219999999999998 -0.039933333333333335 0.32126666666666664 -0.07513333333333333 0.4772666666666666 -0.10566666666666666Zm-0.10173333333333334 3.0455999999999994c0.39766666666666667 0.2904 0.7801333333333332 0.6012666666666666 1.1456 0.9312666666666667 -0.36393333333333333 0.33546666666666664 -0.7450666666666665 0.6516666666666666 -1.142 0.9472666666666667 0.012133333333333333 -0.3104 0.018066666666666665 -0.621 0.017933333333333332 -0.9316666666666666 -0.00013333333333333334 -0.3157333333333333 -0.007333333333333332 -0.6314 -0.021533333333333335 -0.9468666666666665Zm3.0325333333333333 4.538333333333333c-0.2849333333333333 0.4948666666666666 -1.3860000000000001 0.7012 -2.8633999999999995 0.42173333333333335 -0.16926666666666668 -0.032 -0.34299999999999997 -0.06999999999999999 -0.5210666666666666 -0.11413333333333332 0.14846666666666666 -0.6932666666666667 0.25 -1.3956 0.30379999999999996 -2.102533333333333 0.5886 -0.4094 1.1484666666666665 -0.8589333333333333 1.6754 -1.3451999999999997 0.09226666666666666 0.09573333333333334 0.1799333333333333 0.19113333333333332 0.26313333333333333 0.286 0.47119999999999995 0.5124 0.8441333333333333 1.1070666666666666 1.0999999999999999 1.7545333333333333 0.0818 0.17066666666666666 0.1278 0.3563333333333333 0.13506666666666667 0.5454 0.0072 0.18919999999999998 -0.024399999999999998 0.37779999999999997 -0.09293333333333333 0.5542Z" fill="white" stroke-width="0.6667"></path>
</svg>